<mxfile host="app.diagrams.net" agent="Mozilla/5.0 (Windows NT 10.0; Win64; x64) AppleWebKit/537.36 (KHTML, like Gecko) Chrome/131.0.0.0 Safari/537.36 Edg/131.0.0.0" version="25.0.3">
  <diagram name="Page-1" id="Vm32hF8NRtlxiAJkwLQz">
    <mxGraphModel dx="557" dy="638" grid="1" gridSize="10" guides="1" tooltips="1" connect="1" arrows="1" fold="1" page="1" pageScale="1" pageWidth="850" pageHeight="1100" math="0" shadow="0">
      <root>
        <mxCell id="0" />
        <mxCell id="1" parent="0" />
        <mxCell id="hB3bn3h_ssFIC2qdRVGm-6" style="edgeStyle=orthogonalEdgeStyle;rounded=0;orthogonalLoop=1;jettySize=auto;html=1;entryX=0.5;entryY=0;entryDx=0;entryDy=0;" edge="1" parent="1" source="hB3bn3h_ssFIC2qdRVGm-1" target="hB3bn3h_ssFIC2qdRVGm-3">
          <mxGeometry relative="1" as="geometry" />
        </mxCell>
        <mxCell id="hB3bn3h_ssFIC2qdRVGm-1" value="start" style="ellipse;whiteSpace=wrap;html=1;" vertex="1" parent="1">
          <mxGeometry x="160" y="40" width="120" height="80" as="geometry" />
        </mxCell>
        <mxCell id="hB3bn3h_ssFIC2qdRVGm-7" style="edgeStyle=orthogonalEdgeStyle;rounded=0;orthogonalLoop=1;jettySize=auto;html=1;entryX=0.5;entryY=0;entryDx=0;entryDy=0;" edge="1" parent="1" source="hB3bn3h_ssFIC2qdRVGm-3" target="hB3bn3h_ssFIC2qdRVGm-4">
          <mxGeometry relative="1" as="geometry" />
        </mxCell>
        <mxCell id="hB3bn3h_ssFIC2qdRVGm-3" value="num = a&lt;div&gt;num = b&lt;/div&gt;" style="shape=parallelogram;perimeter=parallelogramPerimeter;whiteSpace=wrap;html=1;fixedSize=1;" vertex="1" parent="1">
          <mxGeometry x="160" y="170" width="120" height="60" as="geometry" />
        </mxCell>
        <mxCell id="hB3bn3h_ssFIC2qdRVGm-8" value="true" style="edgeStyle=orthogonalEdgeStyle;rounded=0;orthogonalLoop=1;jettySize=auto;html=1;" edge="1" parent="1" source="hB3bn3h_ssFIC2qdRVGm-4" target="hB3bn3h_ssFIC2qdRVGm-5">
          <mxGeometry relative="1" as="geometry" />
        </mxCell>
        <mxCell id="hB3bn3h_ssFIC2qdRVGm-10" value="false" style="edgeStyle=orthogonalEdgeStyle;rounded=0;orthogonalLoop=1;jettySize=auto;html=1;entryX=0;entryY=0.5;entryDx=0;entryDy=0;" edge="1" parent="1" source="hB3bn3h_ssFIC2qdRVGm-4" target="hB3bn3h_ssFIC2qdRVGm-9">
          <mxGeometry relative="1" as="geometry" />
        </mxCell>
        <mxCell id="hB3bn3h_ssFIC2qdRVGm-4" value="a = 0" style="rhombus;whiteSpace=wrap;html=1;" vertex="1" parent="1">
          <mxGeometry x="180" y="280" width="80" height="80" as="geometry" />
        </mxCell>
        <mxCell id="hB3bn3h_ssFIC2qdRVGm-12" value="true" style="edgeStyle=orthogonalEdgeStyle;rounded=0;orthogonalLoop=1;jettySize=auto;html=1;" edge="1" parent="1" source="hB3bn3h_ssFIC2qdRVGm-5" target="hB3bn3h_ssFIC2qdRVGm-11">
          <mxGeometry relative="1" as="geometry" />
        </mxCell>
        <mxCell id="hB3bn3h_ssFIC2qdRVGm-14" value="false" style="edgeStyle=orthogonalEdgeStyle;rounded=0;orthogonalLoop=1;jettySize=auto;html=1;" edge="1" parent="1" source="hB3bn3h_ssFIC2qdRVGm-5" target="hB3bn3h_ssFIC2qdRVGm-13">
          <mxGeometry relative="1" as="geometry" />
        </mxCell>
        <mxCell id="hB3bn3h_ssFIC2qdRVGm-5" value="b = 0" style="rhombus;whiteSpace=wrap;html=1;" vertex="1" parent="1">
          <mxGeometry x="180" y="420" width="80" height="80" as="geometry" />
        </mxCell>
        <mxCell id="hB3bn3h_ssFIC2qdRVGm-15" style="edgeStyle=orthogonalEdgeStyle;rounded=0;orthogonalLoop=1;jettySize=auto;html=1;" edge="1" parent="1" source="hB3bn3h_ssFIC2qdRVGm-9">
          <mxGeometry relative="1" as="geometry">
            <mxPoint x="530" y="590" as="targetPoint" />
          </mxGeometry>
        </mxCell>
        <mxCell id="hB3bn3h_ssFIC2qdRVGm-9" value="X = -b/a" style="rounded=0;whiteSpace=wrap;html=1;" vertex="1" parent="1">
          <mxGeometry x="360" y="290" width="120" height="60" as="geometry" />
        </mxCell>
        <mxCell id="hB3bn3h_ssFIC2qdRVGm-18" style="edgeStyle=orthogonalEdgeStyle;rounded=0;orthogonalLoop=1;jettySize=auto;html=1;" edge="1" parent="1" source="hB3bn3h_ssFIC2qdRVGm-11">
          <mxGeometry relative="1" as="geometry">
            <mxPoint x="530" y="460" as="targetPoint" />
          </mxGeometry>
        </mxCell>
        <mxCell id="hB3bn3h_ssFIC2qdRVGm-11" value="Phương trình vô nghiệm" style="shape=parallelogram;perimeter=parallelogramPerimeter;whiteSpace=wrap;html=1;fixedSize=1;" vertex="1" parent="1">
          <mxGeometry x="360" y="430" width="120" height="60" as="geometry" />
        </mxCell>
        <mxCell id="hB3bn3h_ssFIC2qdRVGm-17" style="edgeStyle=orthogonalEdgeStyle;rounded=0;orthogonalLoop=1;jettySize=auto;html=1;" edge="1" parent="1" source="hB3bn3h_ssFIC2qdRVGm-13">
          <mxGeometry relative="1" as="geometry">
            <mxPoint x="530" y="590" as="targetPoint" />
          </mxGeometry>
        </mxCell>
        <mxCell id="hB3bn3h_ssFIC2qdRVGm-13" value="Phương trình vô nghiệm" style="rounded=0;whiteSpace=wrap;html=1;" vertex="1" parent="1">
          <mxGeometry x="160" y="560" width="120" height="60" as="geometry" />
        </mxCell>
      </root>
    </mxGraphModel>
  </diagram>
</mxfile>
